<svg width="28" height="20" viewBox="0 0 28 20" fill="none" xmlns="http://www.w3.org/2000/svg">
<g id="Concept_13" clip-path="url(#clip0_662_9001)">
<path id="Vector" d="M22.9339 19.2028H0.362305V17.6855H22.3256C22.317 17.687 22.3078 17.6891 22.2992 17.6912L22.9339 19.2028Z" fill="#F0F4FF"/>
<g id="Group">
<path id="Vector_2" d="M15.9937 11.3752V12.1025C15.8648 12.3774 15.7174 12.6039 15.5877 12.8468L15.5329 12.9437C14.9609 13.9623 14.1311 14.9809 12.9515 15.4824C12.564 15.6441 12.1395 15.7246 11.7341 15.7246C10.7932 15.7246 9.85294 15.3207 9.24392 14.6739C8.78306 14.1561 8.50597 13.5257 8.37704 12.8789C8.34072 12.7493 8.28516 12.6039 8.28516 12.4743V0.84375H11.2875V2.01407H11.2911V11.8767C11.2911 13.0085 11.7705 14.0756 12.7114 14.2857C12.8404 14.3178 12.9878 14.3341 13.1353 14.3341C13.3938 14.3341 13.6702 14.2693 13.9102 14.1561C14.5186 13.8975 14.9609 13.364 15.2935 12.8468C15.607 12.3938 15.8278 11.8923 15.9937 11.3752Z" fill="#F0F4FF"/>
<path id="Vector_3" d="M26.6371 17.6455L25.954 19.1948L25.293 17.6455H26.6371Z" fill="#F0F4FF"/>
<path id="Vector_4" d="M8.33752 10.6355V11.4981C8.20004 11.8193 8.07681 12.0822 7.9372 12.3614L7.88022 12.4754C7.2947 13.6656 6.4442 14.8559 5.23471 15.4421C4.83795 15.6309 4.40344 15.7249 3.98746 15.7249C3.83573 15.7249 3.68473 15.7142 3.53443 15.6922C2.71599 15.5725 1.94527 15.1358 1.41816 14.4969C0.945904 13.8922 0.661693 13.1556 0.529916 12.3992C0.511396 12.2481 0.472932 12.0786 0.454412 11.9276C0.435179 11.7759 0.454412 11.6434 0.454412 11.4924V5.25685L0.439453 3.65416C0.445864 3.65416 0.45085 3.64062 0.454412 3.61569C0.464384 3.54802 0.464384 3.39702 0.464384 3.21823C0.464384 2.9967 0.46011 2.63342 0.454412 2.40121V1.66611C0.45085 1.65115 0.447289 1.63619 0.443015 1.62195V0.874023H3.54084V1.79005C3.54013 1.79931 3.5387 1.80857 3.53799 1.81783V4.6001H5.86225V5.84094H3.53799C3.53799 7.09959 3.52517 9.43667 3.51805 11.4019C3.55865 12.6584 4.048 13.8088 4.96973 14.0432C5.10222 14.0809 5.25323 14.1001 5.40423 14.1001C5.66921 14.1001 5.95271 14.0246 6.21698 13.8922C6.84025 13.5901 7.27475 12.9669 7.61524 12.3614C7.93293 11.8314 8.1687 11.236 8.3368 10.6355H8.33752Z" fill="#F0F4FF"/>
<path id="Vector_5" d="M27.4747 0.871094V2.84703H24.4802V2.00366C24.4802 1.98158 24.4802 1.9595 24.4795 1.93813V0.871094H27.4747Z" fill="#F0F4FF"/>
<path id="Vector_6" d="M27.4745 12.0983C27.4674 12.0948 27.4731 15.5032 27.4731 15.5032L26.8035 16.8658H25.1068L24.4764 15.5003L24.4792 12.0677H24.4785C24.4629 12.1005 24.4472 12.1318 24.4322 12.1624C24.2997 12.426 24.1786 12.6447 24.0433 12.8755L23.987 12.9723C23.9564 13.0243 23.9265 13.0771 23.8944 13.1283C23.3103 14.0942 22.4841 15.0359 21.3337 15.511C20.9355 15.6727 20.5003 15.7539 20.0822 15.7539C19.9582 15.7539 19.8321 15.7475 19.7096 15.734C19.4076 15.7033 19.1106 15.6357 18.8299 15.5359C18.3178 15.355 17.8562 15.0672 17.5043 14.7032C17.0306 14.1854 16.7464 13.555 16.6132 12.9075C16.599 12.8135 16.5755 12.7109 16.5562 12.6119V5.29367C16.5562 5.14551 16.5498 4.99806 16.5377 4.85204C16.4914 4.30143 16.3561 3.78429 16.1339 3.37115H16.1331C16.0904 3.28924 16.0441 3.21302 15.9935 3.14108C15.7649 2.80914 15.4671 2.57194 15.101 2.47792C14.9692 2.44088 14.8182 2.42094 14.6665 2.42094C14.4015 2.42094 14.1187 2.49786 13.8538 2.62964C13.2305 2.93166 12.7953 3.55564 12.4562 4.15968C12.1748 4.62909 11.9583 5.14836 11.7959 5.67832V4.88267C11.9092 4.62339 12.016 4.39759 12.1342 4.15968L12.1912 4.04642C12.7767 2.85616 13.6272 1.66518 14.8367 1.07966C15.2335 0.8909 15.6687 0.796875 16.0833 0.796875C17.0399 0.796875 17.9794 1.2442 18.6027 1.96506C18.6205 1.985 18.6369 2.00495 18.654 2.02489C19.1042 2.60115 19.3834 3.29779 19.5223 4.01579C19.5294 4.05069 19.5351 4.08702 19.5422 4.12193C19.5608 4.27365 19.5985 4.44389 19.6177 4.5949C19.6363 4.74519 19.6177 4.8784 19.6177 5.0294V12.166C19.6306 12.3704 19.6619 12.5713 19.7096 12.7622C19.8977 13.5351 20.3536 14.159 21.068 14.3143C21.2005 14.3464 21.3515 14.3635 21.5039 14.3635C21.7689 14.3635 22.0531 14.2987 22.3181 14.1854C22.9442 13.9268 23.3809 13.3933 23.7213 12.8755C23.7591 12.8228 23.7961 12.7686 23.8296 12.7138C23.9009 12.6034 23.9678 12.4894 24.0305 12.3733C24.2178 12.025 24.3653 11.6581 24.48 11.2913V3.61263H27.4745V12.0983Z" fill="#F0F4FF"/>
</g>
<rect id="Rectangle 26" x="3.51562" y="4.61035" width="2.34658" height="1.24662" fill="#D9D9D9"/>
</g>
<defs>
<clipPath id="clip0_662_9001">
<rect width="27.1118" height="18.406" fill="white" transform="translate(0.362305 0.796875)"/>
</clipPath>
</defs>
</svg>
