<svg width="14" height="14" viewBox="0 0 14 14" fill="none" xmlns="http://www.w3.org/2000/svg">
<path d="M0.249999 6.4375L5.75 1.1875C6.0625 0.906251 6.53125 0.906251 6.8125 1.21875C7.09375 1.53125 7.09375 2 6.78125 2.28125L2.625 6.25L13.25 6.25C13.6875 6.25 14 6.5625 14 7C14 7.40625 13.6875 7.75 13.25 7.75L2.625 7.75L6.78125 11.6875C7.09375 11.9688 7.09375 12.4688 6.8125 12.75C6.53125 13.0625 6.03125 13.0625 5.75 12.7813L0.249999 7.53125C0.0937493 7.375 -6.8299e-07 7.1875 -6.99382e-07 7C-7.18506e-07 6.78125 0.0937493 6.59375 0.249999 6.4375Z" fill="white"/>
</svg>
